<?xml version="1.0" standalone="no"?>
<!DOCTYPE svg PUBLIC "-//W3C//DTD SVG 20010904//EN"
 "http://www.w3.org/TR/2001/REC-SVG-20010904/DTD/svg10.dtd">
<svg version="1.0" xmlns="http://www.w3.org/2000/svg"
 width="1517.000000pt" height="1084.000000pt" viewBox="0 0 1517.000000 1084.000000"
 preserveAspectRatio="xMidYMid meet">

<g transform="translate(0.000000,1084.000000) scale(0.100000,-0.100000)"
fill="#000000" stroke="none">
<path d="M1855 8249 c-234 -31 -348 -147 -349 -354 0 -38 6 -89 12 -112 27
-90 124 -182 289 -273 148 -81 227 -134 253 -170 33 -46 37 -115 11 -158 -25
-38 -55 -52 -116 -52 -35 0 -52 6 -77 29 -32 28 -33 33 -38 118 l-5 88 -170 0
-170 0 -1 -50 c-7 -281 146 -415 471 -415 157 0 293 47 362 123 57 63 76 118
81 233 10 219 -53 302 -349 459 -72 39 -152 88 -176 110 -38 34 -46 47 -49 85
-6 58 11 90 59 114 46 22 95 16 134 -19 24 -20 29 -33 33 -92 l5 -68 155 0
155 0 3 76 c6 165 -75 270 -240 313 -75 19 -201 26 -283 15z"/>
<path d="M5927 8240 c-140 -25 -226 -82 -277 -184 -32 -64 -34 -76 -34 -160 0
-74 4 -101 23 -144 36 -80 131 -162 302 -257 87 -49 164 -100 196 -131 50 -47
53 -53 53 -100 0 -96 -67 -149 -158 -124 -66 17 -85 47 -90 145 l-5 85 -166
-2 -166 -3 -3 -50 c-5 -72 16 -173 46 -229 34 -63 96 -112 180 -144 90 -34
303 -43 402 -18 187 48 269 147 278 336 10 213 -51 294 -345 453 -203 110
-241 151 -222 237 12 52 50 80 108 80 81 0 121 -51 121 -152 l0 -38 155 0 155
0 0 75 c0 218 -122 320 -395 330 -60 2 -132 0 -158 -5z"/>
<path d="M9734 8235 c-101 -22 -160 -53 -213 -111 -85 -93 -86 -99 -86 -544 0
-355 1 -389 19 -434 54 -141 206 -219 426 -219 171 0 293 42 368 128 68 77 74
108 80 373 l4 232 -226 0 -226 0 0 -95 0 -95 65 0 65 0 0 -114 c0 -101 -2
-117 -23 -147 -13 -19 -38 -39 -57 -46 -62 -22 -147 5 -169 54 -7 16 -11 142
-11 369 0 383 1 388 64 418 42 20 88 21 126 1 47 -24 60 -52 60 -127 l0 -68
165 0 165 0 -4 83 c-10 180 -82 276 -246 328 -82 26 -258 33 -346 14z"/>
<path d="M2845 8198 c-2 -7 -9 -42 -15 -78 -6 -36 -26 -146 -45 -245 -19 -99
-63 -340 -100 -535 -36 -195 -67 -363 -69 -372 -4 -17 9 -18 168 -18 l172 0
12 73 c6 39 41 266 77 502 77 510 88 575 92 555 1 -8 12 -78 23 -155 10 -77
46 -326 80 -553 33 -227 60 -415 60 -418 0 -2 77 -4 170 -4 117 0 170 3 170
11 0 14 -219 1208 -226 1232 -5 16 -27 17 -285 17 -215 0 -281 -3 -284 -12z"/>
<path d="M3916 8053 c-3 -87 -8 -340 -12 -563 -3 -223 -7 -435 -9 -472 l-4
-68 158 0 158 0 6 158 c4 86 8 342 8 567 1 226 4 399 6 385 3 -14 49 -266 104
-560 54 -294 99 -538 99 -542 0 -5 74 -8 164 -8 l163 0 25 133 c14 72 61 322
104 554 43 232 79 421 80 420 3 -3 13 -716 14 -919 l0 -188 161 0 162 0 -7
228 c-3 125 -8 340 -11 477 -3 138 -8 319 -11 403 l-6 152 -258 0 -257 0 -17
-107 c-25 -154 -125 -770 -133 -818 l-7 -40 -7 44 c-5 24 -38 228 -74 455 -36
226 -68 423 -71 439 l-6 27 -258 0 -257 0 -7 -157z"/>
<path d="M6801 7713 c1 -542 3 -570 57 -648 65 -94 177 -143 347 -152 231 -13
391 58 457 202 23 50 23 51 26 573 l3 522 -161 0 -160 0 0 -486 c0 -537 0
-538 -63 -571 -38 -19 -110 -13 -139 13 -47 42 -48 53 -48 564 l0 480 -160 0
-160 0 1 -497z"/>
<path d="M8040 7585 l0 -625 156 0 156 0 -6 448 c-4 246 -8 479 -11 517 -2 39
-1 63 2 55 4 -8 75 -240 158 -515 l152 -500 226 -3 227 -2 0 625 0 625 -156 0
-157 0 6 -487 c4 -269 4 -483 2 -478 -3 6 -67 224 -144 485 l-138 475 -237 3
-236 2 0 -625z"/>
<path d="M7502 6324 c-49 -25 -73 -66 -79 -132 -3 -44 0 -65 15 -92 22 -42 90
-80 142 -80 53 0 122 38 142 80 36 71 15 170 -44 214 -38 27 -131 33 -176 10z"/>
<path d="M4383 6164 l-123 -85 0 -82 0 -82 -92 0 -93 0 -3 -95 c-4 -147 -8
-142 97 -138 l89 3 4 -290 c4 -268 6 -295 27 -360 46 -140 147 -203 344 -212
l107 -6 0 120 0 120 -71 5 c-82 6 -118 27 -136 79 -8 23 -12 118 -12 287 l-1
252 110 0 110 0 0 120 0 120 -110 0 -110 0 0 165 c0 91 -3 165 -7 165 -5 -1
-63 -39 -130 -86z"/>
<path d="M1587 6183 c-4 -3 -7 -312 -7 -685 l0 -678 130 0 130 0 0 685 0 685
-123 0 c-68 0 -127 -3 -130 -7z"/>
<path d="M6540 5505 l0 -685 130 0 130 0 0 280 0 280 258 2 257 3 0 120 0 120
-257 3 -258 2 0 155 0 155 260 0 261 0 -3 123 -3 122 -387 3 -388 2 0 -685z"/>
<path d="M2502 5930 c-68 -14 -146 -54 -196 -100 l-46 -43 0 67 0 66 -109 0
c-60 0 -116 -3 -125 -6 -14 -6 -16 -63 -16 -550 l0 -544 124 0 124 0 5 343 c3
240 7 352 16 377 22 61 65 114 116 143 46 25 58 27 137 25 78 -3 91 -6 129
-33 26 -18 53 -50 68 -80 l26 -49 3 -363 3 -363 130 0 130 0 -3 393 c-4 432
-5 438 -70 547 -40 67 -113 123 -194 150 -70 24 -190 33 -252 20z"/>
<path d="M3445 5925 c-179 -39 -306 -168 -309 -313 -1 -80 20 -145 64 -195 65
-74 140 -104 393 -162 139 -31 177 -56 177 -112 0 -82 -79 -129 -202 -121 -91
6 -140 30 -202 99 l-46 52 -113 -53 c-61 -29 -114 -54 -116 -56 -9 -8 65 -107
106 -144 92 -81 212 -120 368 -121 161 -1 267 35 356 122 72 70 104 144 103
239 0 64 -5 84 -30 130 -54 100 -151 151 -391 204 -61 14 -127 32 -146 40 -90
37 -84 126 13 177 14 7 55 13 95 13 85 -1 144 -25 198 -81 l38 -40 105 51 c57
27 104 56 104 63 0 27 -113 133 -173 163 -114 56 -264 73 -392 45z"/>
<path d="M5212 5925 c-201 -46 -354 -197 -406 -401 -20 -79 -21 -232 -1 -309
63 -245 273 -415 516 -417 123 -1 234 39 315 114 l44 41 0 -67 0 -66 130 0
130 0 -3 548 -2 547 -127 3 -128 3 0 -68 0 -67 -37 35 c-51 48 -80 64 -153 89
-81 27 -197 33 -278 15z m291 -252 c73 -33 138 -103 167 -181 31 -81 25 -205
-13 -279 -36 -69 -88 -120 -156 -152 -81 -38 -193 -37 -272 2 -66 32 -132 99
-162 165 -33 70 -31 217 3 287 79 163 267 231 433 158z"/>
<path d="M8360 5933 c-64 -11 -127 -39 -186 -84 -36 -27 -66 -49 -68 -49 -1 0
-1 17 1 38 2 20 1 47 -2 60 -5 22 -8 23 -128 20 l-122 -3 -3 -547 -2 -548 130
0 130 0 0 333 c0 375 4 403 67 476 50 59 101 81 188 81 136 0 218 -71 239
-205 2 -16 5 -177 5 -357 l1 -328 131 0 131 0 -4 383 c-4 354 -6 387 -25 444
-39 118 -102 196 -194 243 -74 38 -204 57 -289 43z"/>
<path d="M9403 5926 c-281 -64 -461 -330 -425 -628 12 -93 49 -199 92 -263
179 -261 540 -317 761 -118 l39 35 0 -66 0 -66 125 0 125 0 0 550 0 550 -125
0 -125 0 0 -66 0 -66 -40 35 c-103 94 -279 136 -427 103z m305 -261 c65 -35
106 -81 141 -155 35 -74 37 -209 4 -282 -30 -66 -95 -133 -162 -165 -79 -39
-191 -40 -272 -2 -68 32 -120 82 -157 152 -24 47 -27 62 -27 157 0 90 3 111
23 147 68 129 167 185 312 180 71 -2 94 -8 138 -32z"/>
<path d="M10735 5920 c-66 -16 -163 -75 -191 -114 -14 -20 -14 -20 -15 4 -1
14 0 41 1 61 1 30 -3 37 -22 43 -30 8 -202 8 -222 0 -14 -6 -16 -63 -16 -550
l0 -544 130 0 130 0 0 334 c0 375 4 402 68 477 49 57 100 79 187 79 110 0 181
-43 222 -135 16 -36 18 -79 21 -397 l3 -358 130 0 129 0 0 350 c0 281 -3 366
-16 427 -38 186 -140 292 -316 329 -83 17 -136 16 -223 -6z"/>
<path d="M11840 5925 c-36 -8 -99 -31 -140 -52 -343 -173 -410 -652 -129 -918
117 -110 235 -156 399 -156 217 -1 406 113 500 299 12 24 20 45 18 46 -2 1
-52 24 -113 50 -99 42 -111 45 -120 30 -83 -138 -153 -183 -286 -184 -184 -1
-318 133 -321 320 -2 149 64 252 198 311 60 27 167 29 233 5 59 -22 125 -77
157 -131 26 -44 26 -45 57 -31 18 7 67 28 110 46 46 20 77 39 77 48 0 24 -88
149 -133 188 -134 116 -337 167 -507 129z"/>
<path d="M12995 5925 c-130 -28 -220 -79 -307 -173 -247 -267 -176 -720 139
-884 94 -50 177 -69 292 -69 115 0 171 12 269 58 83 39 186 132 220 198 l20
41 -96 54 c-53 30 -101 56 -108 58 -6 2 -17 -11 -24 -27 -17 -41 -91 -108
-148 -134 -74 -34 -206 -30 -290 7 -86 40 -172 142 -172 206 0 20 4 20 440 20
l440 0 0 88 c0 173 -55 307 -169 414 -79 75 -167 120 -273 142 -91 19 -151 19
-233 1z m222 -230 c27 -8 68 -28 91 -45 39 -28 102 -119 102 -147 0 -10 -68
-13 -305 -13 -168 0 -305 3 -305 8 0 25 68 117 108 147 84 62 202 82 309 50z"/>
<path d="M7457 5913 c-4 -3 -7 -251 -7 -550 l0 -543 130 0 130 0 0 544 c0 487
-2 544 -16 550 -21 8 -229 8 -237 -1z"/>
<path d="M10160 4003 c0 -52 -3 -64 -12 -55 -22 22 -75 14 -97 -14 -32 -41
-30 -136 4 -169 28 -29 51 -31 83 -9 20 14 22 14 22 0 0 -9 7 -16 15 -16 13 0
15 25 15 165 0 140 -2 165 -15 165 -12 0 -15 -14 -15 -67z m-19 -73 c16 -9 19
-22 19 -81 0 -64 -2 -70 -24 -79 -52 -20 -86 15 -86 88 0 67 40 99 91 72z"/>
<path d="M10350 3905 c0 -103 4 -165 10 -165 6 0 10 7 10 16 0 14 2 14 22 0
30 -21 50 -20 81 4 45 35 48 139 6 181 -20 20 -73 26 -84 9 -16 -25 -25 -5
-25 55 0 37 -4 65 -10 65 -6 0 -10 -62 -10 -165z m112 18 c26 -24 25 -116 -2
-143 -24 -24 -38 -25 -68 -4 -19 13 -22 24 -22 79 0 50 4 66 18 74 25 15 53
13 74 -6z"/>
<path d="M12190 3520 l0 -540 95 0 95 0 0 220 0 220 180 0 180 0 0 95 0 95
-180 0 -180 0 0 130 0 130 188 0 187 0 16 28 c9 16 33 59 53 95 l38 67 -336 0
-336 0 0 -540z"/>
<path d="M12950 3520 l0 -540 259 0 260 0 45 84 c26 45 46 86 46 89 0 4 -96 8
-212 9 l-213 3 -3 448 -2 447 -90 0 -90 0 0 -540z"/>
<path d="M8730 3895 c0 -131 2 -155 15 -155 12 0 15 13 15 55 l0 55 46 0 c82
0 128 76 93 153 -15 33 -49 47 -114 47 l-55 0 0 -155z m130 117 c17 -14 23
-29 23 -62 0 -54 -27 -80 -84 -80 l-39 0 0 80 0 80 39 0 c23 0 48 -8 61 -18z"/>
<path d="M11110 3810 l0 -241 93 50 92 50 3 191 2 190 -95 0 -95 0 0 -240z"/>
<path d="M11890 3897 l0 -152 -390 -195 -390 -195 0 -187 0 -188 95 0 94 0 3
130 3 131 293 150 292 150 0 -281 0 -280 95 0 95 0 0 535 0 535 -95 0 -95 0 0
-153z"/>
<path d="M8971 3934 c-26 -33 -29 -128 -6 -161 31 -44 111 -37 134 13 6 14 11
47 11 75 0 40 -5 55 -25 74 -34 35 -86 34 -114 -1z m97 -7 c17 -20 25 -65 18
-102 -12 -63 -81 -82 -105 -29 -16 35 -14 96 5 122 17 25 65 30 82 9z"/>
<path d="M9150 3952 c0 -5 4 -22 9 -38 6 -16 19 -62 31 -101 12 -41 26 -73 33
-73 8 0 21 30 32 73 26 105 30 109 49 44 9 -31 19 -70 22 -87 11 -50 32 -35
53 38 33 113 41 146 36 151 -11 10 -23 -17 -40 -89 -10 -41 -21 -79 -25 -83
-4 -5 -17 32 -30 82 -13 55 -27 91 -35 91 -8 0 -21 -37 -35 -96 -12 -52 -24
-93 -27 -90 -3 2 -15 44 -27 92 -12 48 -27 89 -34 92 -7 2 -12 -1 -12 -6z"/>
<path d="M9486 3941 c-56 -62 -33 -179 39 -197 28 -7 75 6 74 21 -1 6 -4 9 -8
8 -58 -15 -61 -14 -85 11 -15 14 -26 34 -26 46 0 18 6 20 71 20 l72 0 -6 38
c-4 20 -16 45 -28 55 -28 23 -81 22 -103 -2z m92 -13 c7 -7 12 -22 12 -35 0
-21 -4 -23 -55 -23 -45 0 -55 3 -55 17 0 42 68 71 98 41z"/>
<path d="M9680 3850 c0 -61 4 -110 9 -110 5 0 11 42 13 93 3 100 1 127 -13
127 -5 0 -9 -49 -9 -110z"/>
<path d="M9719 3943 c-12 -15 -12 -16 4 -10 10 4 27 7 38 7 10 0 19 5 19 10 0
16 -47 11 -61 -7z"/>
<path d="M9846 3941 c-56 -62 -33 -179 39 -197 28 -7 75 6 74 21 -1 6 -4 9 -8
8 -58 -15 -61 -14 -85 11 -15 14 -26 34 -26 46 0 18 6 20 71 20 l72 0 -6 38
c-4 20 -16 45 -28 55 -28 23 -81 22 -103 -2z m92 -13 c7 -7 12 -22 12 -35 0
-21 -4 -23 -55 -23 -45 0 -55 3 -55 17 0 42 68 71 98 41z"/>
<path d="M10555 3939 c4 -13 21 -67 37 -119 l30 -95 -37 -32 c-44 -38 -41 -54
4 -27 37 22 42 32 90 177 27 79 36 117 27 117 -7 0 -25 -43 -42 -97 l-31 -98
-29 94 c-16 52 -36 97 -43 99 -10 3 -11 -2 -6 -19z"/>
<path d="M11626 2743 c-57 -118 -66 -143 -50 -143 9 0 18 9 21 20 4 16 14 20
43 20 30 0 40 -5 45 -20 3 -11 13 -20 21 -20 18 0 15 14 -30 111 l-32 71 -18
-39z m34 -65 c0 -5 -9 -8 -20 -8 -18 0 -19 3 -9 21 9 17 13 19 20 8 5 -8 9
-17 9 -21z"/>
<path d="M12190 2693 c0 -76 3 -93 15 -93 12 0 15 13 15 58 l1 57 59 -65 60
-65 0 93 c0 75 -3 92 -15 92 -12 0 -15 -13 -15 -55 l0 -56 -60 63 -59 63 -1
-92z"/>
<path d="M11110 2685 c0 -69 3 -85 15 -85 11 0 15 11 15 40 0 39 1 40 35 40
34 0 35 -1 35 -40 0 -22 5 -40 10 -40 6 0 10 35 10 85 0 82 -15 119 -22 53 -3
-29 -7 -33 -35 -36 -32 -3 -33 -2 -33 32 0 25 -4 36 -15 36 -12 0 -15 -16 -15
-85z"/>
<path d="M11280 2702 c0 -76 16 -102 62 -102 42 0 58 28 58 103 0 38 -4 67
-10 67 -6 0 -10 -26 -10 -59 0 -57 -15 -91 -40 -91 -21 0 -40 47 -40 97 0 29
-4 53 -10 53 -6 0 -10 -29 -10 -68z"/>
<path d="M11460 2685 l0 -85 35 0 c24 0 35 5 35 15 0 9 -9 15 -25 15 -24 0
-25 2 -25 70 0 40 -4 70 -10 70 -6 0 -10 -35 -10 -85z"/>
<path d="M11760 2755 c-19 -23 -4 -62 30 -73 20 -8 30 -18 30 -31 0 -24 -20
-27 -50 -9 -22 14 -33 8 -24 -15 14 -39 90 -32 100 8 9 35 -2 55 -36 68 -30
11 -39 30 -20 42 6 4 17 2 25 -5 15 -12 31 3 20 20 -9 15 -61 12 -75 -5z"/>
<path d="M11980 2685 c0 -69 3 -85 15 -85 11 0 15 11 15 40 0 36 3 40 25 40
16 0 25 6 25 15 0 9 -9 15 -25 15 -18 0 -25 5 -25 20 0 15 7 20 25 20 14 0 25
5 25 10 0 6 -18 10 -40 10 l-40 0 0 -85z"/>
<path d="M12110 2685 c0 -50 4 -85 10 -85 6 0 10 35 10 85 0 50 -4 85 -10 85
-6 0 -10 -35 -10 -85z"/>
<path d="M12492 2758 c-24 -24 -14 -57 23 -75 21 -10 35 -24 35 -35 0 -21 -22
-23 -50 -6 -22 14 -33 8 -24 -15 14 -38 90 -32 100 7 8 32 -10 62 -41 70 -25
6 -34 29 -15 41 6 4 17 2 25 -5 15 -12 31 3 20 20 -9 14 -58 13 -73 -2z"/>
<path d="M12610 2685 l0 -85 50 0 c38 0 50 4 50 15 0 10 -11 15 -35 15 -31 0
-35 3 -35 25 0 21 5 25 30 25 20 0 30 5 30 15 0 10 -10 15 -30 15 -23 0 -30 4
-30 20 0 16 7 20 35 20 19 0 35 5 35 10 0 6 -22 10 -50 10 l-50 0 0 -85z"/>
<path d="M12750 2685 c0 -67 3 -85 14 -85 9 0 16 12 18 33 l3 32 20 -32 c11
-19 28 -33 38 -33 18 0 17 3 -7 34 -22 29 -23 36 -11 46 18 15 20 61 3 78 -7
7 -27 12 -45 12 l-33 0 0 -85z m70 37 c0 -10 -22 -32 -32 -32 -4 0 -8 14 -8
30 0 28 2 30 20 20 11 -6 20 -14 20 -18z"/>
<path d="M12880 2762 c0 -5 15 -46 34 -92 l34 -84 17 39 c27 64 55 135 55 140
0 3 -6 5 -14 5 -8 0 -22 -22 -32 -50 -10 -27 -21 -50 -25 -50 -4 0 -15 23 -25
50 -10 28 -24 50 -31 50 -7 0 -13 -4 -13 -8z"/>
<path d="M13060 2685 l0 -85 45 0 c33 0 45 4 45 15 0 10 -11 15 -35 15 -31 0
-35 3 -35 25 0 22 4 25 35 25 24 0 35 5 35 15 0 11 -11 15 -36 15 -28 0 -35 3
-32 18 2 11 14 18 36 20 48 5 39 22 -13 22 l-45 0 0 -85z"/>
<path d="M13280 2685 l0 -85 40 0 c29 0 40 4 40 15 0 9 -9 15 -25 15 -24 0
-25 2 -25 70 0 56 -3 70 -15 70 -12 0 -15 -16 -15 -85z"/>
<path d="M13370 2761 c0 -5 9 -11 20 -14 18 -5 20 -14 20 -76 0 -41 4 -71 10
-71 6 0 10 30 10 71 0 62 2 71 20 76 37 10 20 23 -30 23 -27 0 -50 -4 -50 -9z"/>
<path d="M13500 2685 l0 -85 30 0 c37 0 85 23 94 45 24 64 -16 125 -84 125
l-40 0 0 -85z m93 33 c28 -33 0 -88 -45 -88 -15 0 -18 9 -18 61 0 58 1 60 23
54 12 -4 30 -16 40 -27z"/>
<path d="M13640 2615 c0 -8 7 -15 15 -15 8 0 15 7 15 15 0 8 -7 15 -15 15 -8
0 -15 -7 -15 -15z"/>
</g>
</svg>
