<?xml version="1.0" encoding="utf-8"?>
<!-- Generator: Adobe Illustrator 23.0.2, SVG Export Plug-In . SVG Version: 6.00 Build 0)  -->
<svg version="1.1" id="Layer_1" xmlns="http://www.w3.org/2000/svg" xmlns:xlink="http://www.w3.org/1999/xlink" x="0px" y="0px"
	 viewBox="0 0 34.7 22" style="enable-background:new 0 0 34.7 22;" xml:space="preserve">
<style type="text/css">
	.st0{fill:#0A0A0A;}
</style>
<g>
	<path class="st0" d="M32.7,22H2c-1.1,0-2-0.9-2-2V2c0-1.1,0.9-2,2-2h30.7c1.1,0,2,0.9,2,2v18C34.7,21.1,33.8,22,32.7,22z M2,0.6
		C1.3,0.6,0.6,1.3,0.6,2v18c0,0.7,0.6,1.4,1.4,1.4h30.7c0.7,0,1.4-0.6,1.4-1.4V2c0-0.7-0.6-1.4-1.4-1.4H2z"/>
</g>
<path class="st0" d="M9,6.8c0.3-0.4,0.5-0.9,0.5-1.5C9,5.3,8.5,5.6,8.1,6C7.8,6.3,7.6,6.9,7.6,7.4C8.2,7.4,8.7,7.2,9,6.8 M9.5,7.5
	c-0.8,0-1.4,0.4-1.8,0.4S6.8,7.5,6.2,7.5C5.4,7.6,4.7,8,4.3,8.7c-0.8,1.4-0.2,3.5,0.6,4.6c0.4,0.6,0.8,1.2,1.5,1.2
	c0.6,0,0.8-0.4,1.5-0.4s0.9,0.4,1.5,0.4c0.6,0,1-0.6,1.4-1.1c0.4-0.6,0.6-1.3,0.6-1.3s-1.2-0.5-1.2-1.9c0-1.2,0.9-1.7,1-1.7
	C10.6,7.6,9.8,7.5,9.5,7.5"/>
<g>
	<path class="st0" d="M16,5.9c1.7,0,2.8,1.1,2.8,2.8s-1.2,2.8-2.8,2.8h-1.8v2.9h-1.3V5.9H16z M14.2,10.4h1.5c1.1,0,1.8-0.6,1.8-1.7
		S16.9,7,15.7,7h-1.5V10.4L14.2,10.4z M19.2,12.7c0-1.1,0.8-1.7,2.3-1.8l1.7-0.1v-0.5c0-0.7-0.5-1.1-1.2-1.1s-1.2,0.4-1.3,0.9h-1.2
		c0.1-1.1,1-1.9,2.5-1.9s2.5,0.8,2.5,2v4.2h-1.2v-1l0,0c-0.4,0.7-1.1,1.1-1.9,1.1C20,14.5,19.2,13.7,19.2,12.7z M23.2,12.1v-0.5
		l-1.5,0.1c-0.8,0-1.2,0.4-1.2,0.9s0.4,0.9,1.1,0.9C22.5,13.5,23.2,12.9,23.2,12.1L23.2,12.1z M25.6,16.7v-1c0.1,0,0.3,0,0.4,0
		c0.6,0,0.9-0.2,1.1-0.9l0.1-0.4L25,8.2h1.4l1.6,5l0,0l1.6-5h1.3l-2.3,6.5c-0.5,1.5-1.1,2-2.4,2C26,16.7,25.7,16.7,25.6,16.7
		L25.6,16.7z"/>
</g>
</svg>
