<?xml version="1.0" encoding="utf-8"?>
<!-- Generator: Adobe Illustrator 23.0.2, SVG Export Plug-In . SVG Version: 6.00 Build 0)  -->
<svg version="1.1" id="Layer_1" xmlns="http://www.w3.org/2000/svg" xmlns:xlink="http://www.w3.org/1999/xlink" x="0px" y="0px"
	 viewBox="0 0 34.7 22" style="enable-background:new 0 0 34.7 22;" xml:space="preserve">
<style type="text/css">
	.st0{fill:#0A0A0A;}
	.st1{fill:#231F20;}
	.st2{fill:#F79410;}
	.st3{fill:#FF5F00;}
	.st4{fill:#EB001B;}
	.st5{fill:#F79E1B;}
</style>
<g>
	<path class="st0" d="M32.7,22H2c-1.1,0-2-0.9-2-2V2c0-1.1,0.9-2,2-2h30.7c1.1,0,2,0.9,2,2v18C34.7,21.1,33.8,22,32.7,22z M2,0.6
		C1.3,0.6,0.6,1.3,0.6,2v18c0,0.7,0.6,1.4,1.4,1.4h30.7c0.7,0,1.4-0.6,1.4-1.4V2c0-0.7-0.6-1.4-1.4-1.4H2z"/>
</g>
<path class="st1" d="M26.8,18.8L26.8,18.8L26.8,18.8C26.8,18.9,26.8,18.9,26.8,18.8C26.8,18.9,26.8,18.9,26.8,18.8L26.8,18.8
	L26.8,18.8L26.8,18.8L26.8,18.8z M26.8,18.8L26.8,18.8C26.9,18.8,26.9,18.8,26.8,18.8C26.9,18.9,26.9,18.9,26.8,18.8
	C26.8,18.9,26.8,18.9,26.8,18.8l0.1,0.2l0,0L26.8,18.8L26.8,18.8V19l0,0V18.8L26.8,18.8L26.8,18.8z M26.8,19L26.8,19
	C26.9,19,26.9,19,26.8,19c0.1-0.1,0.1-0.1,0.1-0.1v-0.1l0,0l0,0c0,0,0,0-0.1,0c0,0,0,0-0.1,0l0,0v0.1C26.7,18.9,26.7,19,26.8,19
	C26.7,19,26.7,19,26.8,19L26.8,19 M26.8,18.7h0.1c0,0,0,0,0,0.1v0.1c0,0,0,0,0,0.1c0,0,0,0-0.1,0c0,0,0,0-0.1,0c0,0,0,0-0.1,0
	c0,0,0,0-0.1,0c0,0,0,0,0-0.1v-0.1c0,0,0,0,0-0.1C26.7,18.7,26.7,18.7,26.8,18.7C26.7,18.7,26.8,18.7,26.8,18.7 M11,18.1
	c0-0.3,0.2-0.5,0.5-0.5s0.5,0.2,0.5,0.5s-0.2,0.5-0.5,0.5S11,18.4,11,18.1 M12.3,18.1v-0.8H12v0.2c-0.1-0.2-0.3-0.2-0.5-0.2
	c-0.5,0-0.8,0.4-0.8,0.9S11,19,11.4,19c0.2,0,0.4-0.1,0.5-0.2V19h0.4L12.3,18.1L12.3,18.1z M24.8,18.1c0-0.3,0.2-0.5,0.5-0.5
	s0.5,0.2,0.5,0.5s-0.2,0.5-0.5,0.5S24.8,18.4,24.8,18.1 M26.2,18.1v-1.5h-0.4v0.9c-0.1-0.2-0.3-0.2-0.5-0.2c-0.5,0-0.8,0.4-0.8,0.9
	s0.4,0.9,0.8,0.9c0.2,0,0.4-0.1,0.5-0.2V19h0.4V18.1z M16.9,17.5c0.2,0,0.4,0.1,0.4,0.4h-0.9C16.5,17.7,16.7,17.5,16.9,17.5
	 M16.9,17.2c-0.5,0-0.8,0.4-0.8,0.9S16.5,19,17,19c0.3,0,0.5-0.1,0.7-0.2l-0.2-0.3c-0.1,0.1-0.3,0.2-0.5,0.2s-0.5-0.1-0.5-0.4h1.3
	v-0.1C17.7,17.6,17.4,17.2,16.9,17.2 M21.4,18.1c0-0.3,0.2-0.5,0.5-0.5s0.5,0.2,0.5,0.5s-0.2,0.5-0.5,0.5S21.4,18.4,21.4,18.1
	 M22.8,18.1v-0.8h-0.4v0.2c-0.1-0.2-0.3-0.2-0.5-0.2c-0.5,0-0.8,0.4-0.8,0.9s0.4,0.9,0.8,0.9c0.2,0,0.4-0.1,0.5-0.2V19h0.4V18.1
	L22.8,18.1z M19.3,18.1c0,0.5,0.4,0.9,0.9,0.9c0.3,0,0.4-0.1,0.6-0.2l-0.2-0.3c-0.1,0.1-0.3,0.2-0.4,0.2c-0.3,0-0.5-0.2-0.5-0.5
	s0.2-0.5,0.5-0.5c0.2,0,0.3,0.1,0.4,0.2l0.2-0.3c-0.2-0.1-0.4-0.2-0.6-0.2C19.7,17.2,19.3,17.6,19.3,18.1 M24.1,17.2
	c-0.2,0-0.4,0.1-0.4,0.2v-0.2h-0.4V19h0.4v-1c0-0.3,0.1-0.4,0.4-0.4c0.1,0,0.2,0,0.2,0l0.1-0.3C24.2,17.2,24.1,17.2,24.1,17.2
	 M14.2,17.4c-0.2-0.1-0.4-0.2-0.7-0.2c-0.4,0-0.7,0.2-0.7,0.5s0.2,0.4,0.6,0.5h0.2c0.2,0,0.3,0.1,0.3,0.2s-0.1,0.2-0.4,0.2
	c-0.3,0-0.4-0.1-0.6-0.2l-0.2,0.3c0.2,0.1,0.5,0.2,0.7,0.2c0.5,0,0.8-0.2,0.8-0.6c0-0.3-0.2-0.5-0.6-0.5h-0.2
	c-0.2,0-0.3-0.1-0.3-0.2s0.1-0.2,0.3-0.2s0.4,0.1,0.5,0.1L14.2,17.4L14.2,17.4z M18.9,17.2c-0.2,0-0.4,0.1-0.4,0.2v-0.2h-0.4V19h0.4
	v-1c0-0.3,0.1-0.4,0.4-0.4c0.1,0,0.2,0,0.2,0l0.1-0.3C19.1,17.2,19,17.2,18.9,17.2 M15.8,17.3h-0.6v-0.5h-0.4v0.5h-0.3v0.3h0.3v0.8
	c0,0.4,0.2,0.6,0.6,0.6c0.2,0,0.3,0,0.5-0.1l-0.1-0.3c-0.1,0.1-0.2,0.1-0.3,0.1c-0.2,0-0.2-0.1-0.2-0.3v-0.8h0.6L15.8,17.3z
	 M10.3,19v-1.1c0-0.4-0.3-0.7-0.7-0.7c-0.2,0-0.4,0.1-0.6,0.3c-0.1-0.2-0.3-0.3-0.6-0.3c-0.2,0-0.4,0.1-0.5,0.3v-0.2H7.6V19H8v-1
	c0-0.3,0.2-0.5,0.4-0.5s0.4,0.2,0.4,0.4V19h0.4v-1c0-0.3,0.2-0.5,0.4-0.5c0.3,0,0.4,0.2,0.4,0.4V19H10.3z"/>
<path class="st2" d="M27,13.3v-0.2h-0.1l-0.1,0.2l-0.1-0.2h-0.1v0.2l0,0v-0.2l0.1,0.2l0,0l0.1-0.2L27,13.3L27,13.3L27,13.3z
	 M26.6,13.3v-0.2h0.1l0,0h-0.2l0,0h0.1V13.3L26.6,13.3L26.6,13.3z"/>
<path class="st3" d="M19.6,14.4H14v-10h5.6V14.4z"/>
<path class="st4" d="M14.4,9.3c0-2,1-3.9,2.4-5C15.7,3.4,14.3,3,12.9,3C9.4,3,6.5,5.8,6.5,9.3s2.9,6.4,6.4,6.4
	c1.4,0,2.8-0.5,3.9-1.4C15.3,13.2,14.4,11.4,14.4,9.3"/>
<path class="st5" d="M27.2,9.3c0,3.5-2.9,6.4-6.4,6.4c-1.4,0-2.8-0.5-4-1.4c1.5-1.2,2.4-3,2.4-5s-1-3.9-2.4-5C18,3.4,19.4,3,20.8,3
	C24.3,3,27.2,5.8,27.2,9.3"/>
</svg>
