<?xml version="1.0" encoding="utf-8"?>
<!-- Generator: Adobe Illustrator 23.0.2, SVG Export Plug-In . SVG Version: 6.00 Build 0)  -->
<svg version="1.1" id="Layer_1" xmlns="http://www.w3.org/2000/svg" xmlns:xlink="http://www.w3.org/1999/xlink" x="0px" y="0px"
	 viewBox="0 0 34.7 22" style="enable-background:new 0 0 34.7 22;" xml:space="preserve">
<style type="text/css">
	.st0{fill:#0A0A0A;}
	.st1{fill:#2566AF;}
	.st2{fill:#E6A540;}
</style>
<g>
	<path class="st0" d="M32.7,22H2c-1.1,0-2-0.9-2-2V2c0-1.1,0.9-2,2-2h30.7c1.1,0,2,0.9,2,2v18C34.7,21.1,33.8,22,32.7,22z M2,0.6
		C1.3,0.6,0.6,1.3,0.6,2v18c0,0.7,0.6,1.4,1.4,1.4h30.7c0.7,0,1.4-0.6,1.4-1.4V2c0-0.7-0.6-1.4-1.4-1.4H2z"/>
</g>
<g>
	<path class="st1" d="M19.3,9.4c0-0.8,1.8-0.7,2.6-0.3l0.3-1.6c0,0-0.8-0.3-1.7-0.3c-0.9,0-3.2,0.4-3.2,2.4c0,1.9,2.6,1.9,2.6,2.9
		s-2.3,0.8-3.1,0.2l-0.3,1.6c0,0,0.8,0.4,2.1,0.4c1.3,0,3.2-0.7,3.2-2.5C22,10.4,19.3,10.2,19.3,9.4z"/>
	<path class="st1" d="M27,7.4h-1.5c-0.7,0-0.9,0.5-0.9,0.5l-2.8,6.7h2l0.4-1.1h2.4l0.2,1.1l0,0h1.7L27,7.4z M24.7,12.1l1-2.7
		l0.6,2.7H24.7z"/>
	<path class="st1" d="M12,7.4L12,7.4l-1.8,5L10,11.3l0,0l0,0C9.9,11,9.4,9.9,8.2,8.9C8,8.7,7.7,8.5,7.4,8.3L9,14.6h2l3-7.2
		C14,7.4,12,7.4,12,7.4z"/>
	<polygon class="st1" points="14.7,7.4 13.6,14.6 15.5,14.6 16.6,7.4 	"/>
	<path class="st2" d="M10,11.3L10,11.3L9.3,8c0,0-0.1-0.7-0.9-0.7h-3v0.1c0,0,0.9,0.2,2,0.8C7.7,8.5,8,8.7,8.2,8.9
		C9.4,9.9,9.9,11,10,11.3z"/>
</g>
</svg>
