<?xml version="1.0" encoding="utf-8"?>
<!-- Generator: Adobe Illustrator 23.0.2, SVG Export Plug-In . SVG Version: 6.00 Build 0)  -->
<svg version="1.1" id="Layer_1" xmlns="http://www.w3.org/2000/svg" xmlns:xlink="http://www.w3.org/1999/xlink" x="0px" y="0px"
	 viewBox="0 0 34.7 22" style="enable-background:new 0 0 34.7 22;" xml:space="preserve">
<style type="text/css">
	.st0{fill:#0A0A0A;}
	.st1{fill:#003087;}
	.st2{fill:#009CDE;}
	.st3{fill:#012169;}
</style>
<g>
	<path class="st0" d="M32.7,22H2c-1.1,0-2-0.9-2-2V2c0-1.1,0.9-2,2-2h30.7c1.1,0,2,0.9,2,2v18C34.7,21.1,33.8,22,32.7,22z M2,0.6
		C1.3,0.6,0.6,1.3,0.6,2v18c0,0.7,0.6,1.4,1.4,1.4h30.7c0.7,0,1.4-0.6,1.4-1.4V2c0-0.7-0.6-1.4-1.4-1.4H2z"/>
</g>
<g>
	<path class="st1" d="M22,4.2C21.3,3.3,19.9,3,18.2,3h-4.9c-0.5,0-0.7,0.2-0.7,0.5l-2.1,13.1c0,0.2,0.2,0.5,0.5,0.5l0,0h3l0.7-4.9
		v0.2c0-0.2,0.5-0.7,0.7-0.7h1.4c2.8,0,5.2-1.2,5.9-4.5V7C22.9,5.8,22.7,4.9,22,4.2"/>
	<path class="st1" d="M22,4.2C21.3,3.3,19.9,3,18.2,3h-4.9c-0.5,0-0.7,0.2-0.7,0.5l-2.1,13.1c0,0.2,0.2,0.5,0.5,0.5l0,0h3l0.7-4.9
		v0.2c0-0.2,0.5-0.7,0.7-0.7h1.4c2.8,0,5.2-1.2,5.9-4.5V7C22.9,5.8,22.7,4.9,22,4.2"/>
	<path class="st1" d="M15.4,7c0-0.2,0.2-0.5,0.7-0.5h4c0.5,0,0.9,0,1.2,0c0.2,0,0.5,0,0.7,0.2c0.2,0,0.5,0.2,0.7,0.2
		c0.2-1.2,0-2.1-0.7-2.8C21.3,3.3,19.9,3,18.2,3h-4.9c-0.5,0-0.7,0.2-0.7,0.5l-2.1,13.1c0,0.2,0.2,0.5,0.5,0.5l0,0h3l0.7-4.9L15.4,7
		z"/>
	<path class="st2" d="M22.7,7v0.2c-0.7,3.3-2.8,4.5-5.9,4.5h-1.4c-0.2,0-0.7,0.2-0.7,0.7L14,17.1l-0.2,1.4c0,0.2,0,0.5,0.2,0.5l0,0
		h2.6c0.2,0,0.5-0.2,0.7-0.5v-0.2l0.5-3V15c0-0.2,0.2-0.5,0.7-0.5h0.5c2.6,0,4.5-0.9,5.2-4c0.2-1.2,0-2.3-0.5-3
		C23.2,7.2,22.9,7,22.7,7"/>
	<path class="st3" d="M22,6.8h-0.2h-0.2c-0.5,0-0.9,0-1.2,0h-4.2c-0.2,0-0.5,0.2-0.7,0.5l-0.9,5.2v0.2c0-0.2,0.2-0.7,0.7-0.7h1.4
		c2.8,0,5.2-1.2,5.9-4.5V7.2C22.5,7,22.2,6.8,22,6.8L22,6.8"/>
</g>
</svg>
