<?xml version="1.0" encoding="utf-8"?>
<!-- Generator: Adobe Illustrator 23.0.2, SVG Export Plug-In . SVG Version: 6.00 Build 0)  -->
<svg version="1.1" id="Layer_1" xmlns="http://www.w3.org/2000/svg" xmlns:xlink="http://www.w3.org/1999/xlink" x="0px" y="0px"
	 viewBox="0 0 34.7 22" style="enable-background:new 0 0 34.7 22;" xml:space="preserve">
<style type="text/css">
	.st0{fill:#0A0A0A;}
</style>
<g>
	<path class="st0" d="M32.7,22H2c-1.1,0-2-0.9-2-2V2c0-1.1,0.9-2,2-2h30.7c1.1,0,2,0.9,2,2v18C34.7,21.1,33.8,22,32.7,22z M2,0.6
		C1.3,0.6,0.6,1.3,0.6,2v18c0,0.7,0.6,1.4,1.4,1.4h30.7c0.7,0,1.4-0.6,1.4-1.4V2c0-0.7-0.6-1.4-1.4-1.4H2z"/>
</g>
<g>
	<path class="st0" d="M10.9,15c-0.8,0.3-1.2,0.4-1.7,0.4c-1.4,0-2.3-0.6-2.9-1.2C5.5,13.4,5,12.3,5,11.3c0-1.1,0.5-2.1,1.2-2.8
		C6.8,7.8,7.8,7.3,9,7.3c0.4,0,1,0.1,1.8,0.4v2.4c-0.6-0.8-1.4-0.8-1.7-0.8c-0.6,0-1,0.2-1.4,0.6c-0.5,0.5-0.6,1-0.6,1.6
		s0.2,1.1,0.6,1.5c0.4,0.3,0.8,0.6,1.5,0.6c0.3,0,1,0,1.7-0.8L10.9,15L10.9,15z"/>
	<path class="st0" d="M15.9,10h1.8v5.1h-1.8v-0.6c-0.5,0.6-1.1,0.7-1.6,0.7c-0.6,0-1.2-0.2-1.8-0.8c-0.5-0.6-0.7-1.1-0.7-1.9
		c0-1,0.4-1.7,0.8-2c0.5-0.5,1.1-0.7,1.8-0.7c0.8,0,1.3,0.5,1.6,0.6L15.9,10L15.9,10z M14,11.7c-0.3,0.3-0.4,0.6-0.4,0.8
		c0,0.3,0.1,0.6,0.4,0.8c0.2,0.2,0.6,0.4,0.8,0.4c0.3,0,0.6-0.1,0.8-0.4c0.2-0.2,0.4-0.5,0.4-0.8s-0.1-0.6-0.4-0.8
		c-0.2-0.2-0.5-0.4-0.8-0.4C14.6,11.4,14.3,11.5,14,11.7z"/>
	<path class="st0" d="M19.4,13.4c0.2,0.2,0.5,0.3,0.7,0.4c0.3,0.1,0.6,0.1,0.7,0.1c0.2,0,0.4,0,0.5-0.2c0.1-0.1,0.1-0.2,0.1-0.3
		s0-0.2-0.1-0.3s-0.3-0.2-0.5-0.2l-0.5-0.1c-0.3-0.1-0.6-0.2-0.9-0.5c-0.2-0.2-0.4-0.5-0.4-0.9c0-0.5,0.2-0.9,0.5-1.3
		c0.4-0.4,1.1-0.6,1.8-0.6c0.7,0,1.4,0.2,1.7,0.4l-0.6,1.2c-0.3-0.1-0.6-0.3-1-0.3c-0.2,0-0.3,0-0.5,0.1c-0.1,0.1-0.2,0.2-0.2,0.3
		c0,0.2,0.1,0.3,0.2,0.3c0.2,0.1,0.4,0.1,0.6,0.2l0.4,0.1c0.3,0.1,0.6,0.3,0.7,0.4c0.3,0.3,0.4,0.6,0.4,1c0,0.6-0.3,1-0.6,1.3
		C21.9,15,21.1,15,20.6,15s-1.2-0.1-2.1-0.6L19.4,13.4z"/>
	<path class="st0" d="M24.2,6.7H26v3.9c0.2-0.2,0.4-0.4,0.6-0.6c0.4-0.2,0.7-0.3,1.1-0.3c0.7,0,1.2,0.3,1.6,0.6
		c0.5,0.5,0.5,0.9,0.5,1.5V15H28v-2.6c0-0.4,0-0.7-0.3-1c-0.2-0.2-0.4-0.2-0.6-0.2s-0.5,0-0.6,0.2c-0.2,0.2-0.3,0.5-0.3,0.8V15h-1.8
		L24.2,6.7L24.2,6.7z"/>
</g>
</svg>
